<svg width="32" height="32" viewBox="0 0 32 32" xmlns="http://www.w3.org/2000/svg">
  <defs>
    <linearGradient id="faviconGradient" x1="0%" y1="0%" x2="100%" y2="100%">
      <stop offset="0%" style="stop-color:#ef4444;stop-opacity:1" />
      <stop offset="100%" style="stop-color:#dc2626;stop-opacity:1" />
    </linearGradient>
  </defs>
  
  <!-- Corazón minimalista con pulso -->
  <g transform="translate(16, 16)">
    <!-- Pulso ECG simplificado -->
    <path d="M -12,0 L -6,0 L -4,-6 L -2,6 L 0,-4 L 2,4 L 4,0 L 10,0" 
          stroke="#3b82f6" 
          stroke-width="1.5" 
          fill="none" 
          stroke-linecap="round"/>
    
    <!-- Corazón minimalista -->
    <path d="M 0,-3 C 0,-5 -2,-7 -4,-7 C -6,-7 -8,-5 -8,-3 C -8,-5 -10,-7 -12,-7 C -14,-7 -16,-5 -16,-3 C -16,0 -8,6 -8,6 C -8,6 0,0 0,-3 Z" 
          fill="url(#faviconGradient)" 
          transform="scale(0.7)"/>
  </g>
</svg>
